<svg width="179" height="31" viewBox="0 0 179 31" fill="none" xmlns="http://www.w3.org/2000/svg">
<path d="M0 0.5H30V10.5H0V0.5Z" fill="black"/>
<path d="M0 10.5H20V20.5H0V10.5Z" fill="black"/>
<path d="M0 20.5H10V30.5H0V20.5Z" fill="black"/>
<path d="M57.0344 18.794H46.5393V30.4746H40V0.565841H59.0123V6.62842H46.5393V12.8931H57.0344V18.794Z" fill="black"/>
<path d="M70.5548 31C64.4595 31 60.1 26.5541 60.1 20.3299C60.1 14.0248 64.3384 9.61929 70.4337 9.61929C76.7711 9.61929 80.727 13.7823 80.727 20.3703V21.9465L66.0742 22.0274C66.4375 24.6949 67.931 25.9478 70.6759 25.9478C73.0171 25.9478 74.6721 25.0991 75.1161 23.6441H80.8077C80.0811 28.1304 76.0849 31 70.5548 31ZM70.4741 14.6714C68.0117 14.6714 66.6393 15.7627 66.1549 18.1877H74.551C74.551 16.0456 72.9767 14.6714 70.4741 14.6714Z" fill="black"/>
<path d="M90.6245 30.4746H84.4082V0H90.6245V30.4746Z" fill="black"/>
<path d="M101.504 30.4746H95.288V0H101.504V30.4746Z" fill="black"/>
<path d="M105.078 20.3299C105.078 13.9439 109.76 9.65971 116.219 9.65971C122.637 9.65971 127.32 13.9439 127.32 20.3299C127.32 26.7158 122.637 30.9596 116.219 30.9596C109.76 30.9596 105.078 26.7158 105.078 20.3299ZM111.335 20.2894C111.335 23.3611 113.313 25.382 116.219 25.382C119.085 25.382 121.063 23.3611 121.063 20.2894C121.063 17.2581 119.085 15.2373 116.219 15.2373C113.313 15.2373 111.335 17.2581 111.335 20.2894Z" fill="black"/>
<path d="M134.46 30.4746L127.961 10.266H134.5L136.357 16.854C136.842 18.5919 137.286 20.5724 137.609 22.5932C137.972 20.4511 138.174 19.6832 139.062 16.854L141.12 10.266H147.498L149.395 16.854C149.597 17.5411 150.566 21.2999 150.768 22.5932C151.01 21.1382 151.979 17.5815 152.181 16.854L154.118 10.266H160.698L153.634 30.4746H147.861L145.924 24.0482C144.915 20.734 144.39 18.3494 144.269 17.5007C144.107 18.3494 143.744 19.9257 142.452 24.1695L140.515 30.4746H134.46Z" fill="black"/>
<path d="M161.4 24.0887H167.294C167.375 25.5033 168.424 26.352 170.321 26.352C172.259 26.352 173.147 25.6649 173.147 24.6141C173.147 24.0078 172.824 23.3611 171.33 23.0378L167.617 22.2295C163.903 21.4211 162.087 19.8044 162.087 16.2477C162.087 12.0443 165.679 9.61929 170.523 9.61929C175.206 9.61929 178.475 12.3677 178.475 16.4498H172.582C172.582 15.0756 171.734 14.146 170.241 14.146C168.828 14.146 167.94 14.8735 167.94 15.9648C167.94 16.8944 168.707 17.4198 170.12 17.7432L173.874 18.5515C177.184 19.279 179 20.8149 179 24.0482C179 28.3729 175.327 31 170.079 31C164.751 31 161.4 28.1708 161.4 24.0887Z" fill="black"/>
</svg>
