<svg width="987" height="1040" viewBox="0 0 987 1040" fill="none" xmlns="http://www.w3.org/2000/svg">
<path d="M987 1040H0V0H987V1040ZM135.4 1C88.3563 1 64.8338 1.00004 46.8652 10.1553C31.0596 18.2086 18.2086 31.0596 10.1553 46.8652C1.00004 64.8338 1 88.3563 1 135.4V524.6C1 571.644 1.00003 595.166 10.1553 613.135C18.2086 628.94 31.0596 641.791 46.8652 649.845C64.8335 659 72.956 659 120 659C126.627 659 132 664.373 132 671C132 677.627 126.627 683 120 683C72.956 683 64.8335 683 46.8652 692.155C31.0596 700.209 18.2086 713.06 10.1553 728.865C1.00003 746.834 1 770.356 1 817.4V904.6C1 951.644 1.00003 975.166 10.1553 993.135C18.2086 1008.94 31.0596 1021.79 46.8652 1029.84C64.8338 1039 88.3563 1039 135.4 1039H851.6C898.644 1039 922.166 1039 940.135 1029.84C955.94 1021.79 968.791 1008.94 976.845 993.135C986 975.166 986 951.644 986 904.6V641.4C986 594.356 986 570.834 976.845 552.865C968.791 537.06 955.94 524.209 940.135 516.155C922.167 507 915.044 507 868 507C862.201 507 857.5 502.299 857.5 496.5C857.5 490.701 862.201 486 868 486C915.044 486 922.167 486 940.135 476.845C955.94 468.791 968.791 455.94 976.845 440.135C986 422.166 986 398.644 986 351.6V135.4C986 88.3563 986 64.8338 976.845 46.8652C968.791 31.0596 955.94 18.2086 940.135 10.1553C922.166 1.00003 898.644 1 851.6 1H135.4Z" fill="white"/>
</svg>
