<svg width="3146" height="1332" viewBox="0 0 3146 1332" fill="none" xmlns="http://www.w3.org/2000/svg">
<path d="M3146 1332H0V0H3146V1332ZM137 1C61.8893 1 1 61.8893 1 137V825C1 900.111 61.8893 961 137 961C145.837 961 153 968.163 153 977C153 985.837 145.837 993 137 993C61.8893 993 1 1053.89 1 1129V1195C1 1270.11 61.8893 1331 137 1331H1329C1404.11 1331 1465 1270.11 1465 1195C1465 1186.16 1472.16 1179 1481 1179C1489.84 1179 1497 1186.16 1497 1195C1497 1270.11 1557.89 1331 1633 1331H3009C3084.11 1331 3145 1270.11 3145 1195V137C3145 61.8893 3084.11 1 3009 1H1180C1104.89 1 1044 61.8893 1044 137C1044 144.732 1037.73 151 1030 151C1022.27 151 1016 144.732 1016 137C1016 61.8893 955.111 1 880 1H137Z" fill="white"/>
</svg>
