<svg width="100" height="100" viewBox="0 0 100 100" fill="none" xmlns="http://www.w3.org/2000/svg">
<rect width="100" height="100" fill="#242938"/>
<path d="M50 39.75C69.0752 39.75 80.75 46.3869 80.75 50C80.75 53.6131 69.0752 60.25 50 60.25C30.9248 60.25 19.25 53.6131 19.25 50C19.25 46.3869 30.9248 39.75 50 39.75ZM50 34.625C30.1868 34.625 14.125 41.5079 14.125 50C14.125 58.4921 30.1868 65.375 50 65.375C69.8132 65.375 85.875 58.4921 85.875 50C85.875 41.5079 69.8132 34.625 50 34.625Z" fill="#00D8FF"/>
<path d="M50 44.875C48.9864 44.875 47.9955 45.1756 47.1527 45.7387C46.3099 46.3019 45.653 47.1023 45.2651 48.0387C44.8772 48.9752 44.7757 50.0057 44.9735 50.9998C45.1712 51.994 45.6593 52.9072 46.3761 53.6239C47.0928 54.3407 48.006 54.8288 49.0002 55.0265C49.9943 55.2243 51.0248 55.1228 51.9613 54.7349C52.8977 54.347 53.6981 53.6901 54.2613 52.8473C54.8244 52.0045 55.125 51.0136 55.125 50C55.125 48.6408 54.585 47.3372 53.6239 46.3761C52.6628 45.415 51.3592 44.875 50 44.875Z" fill="#00D8FF"/>
<path d="M35.7986 23.1117C40.9671 23.1117 51.0121 31.2528 58.8765 44.875C68.4141 61.3954 68.5038 74.8229 65.375 76.6295C65.014 76.8167 64.61 76.9051 64.2039 76.8858C59.0353 76.8858 48.9878 68.7473 41.1235 55.125C31.5858 38.6046 31.4961 25.1771 34.625 23.3705C34.9867 23.1829 35.3916 23.0919 35.7986 23.1117ZM35.796 17.9893C34.4901 17.9656 33.2014 18.2902 32.0624 18.9297C24.7081 23.1758 26.7786 40.529 36.6852 57.6875C45.1004 72.2681 56.4677 82.0133 64.2065 82.0133C65.512 82.0349 66.7998 81.7086 67.9375 81.0678C75.2918 76.8243 73.2213 59.471 63.3147 42.3125C54.8994 27.7319 43.5322 17.9867 35.7935 17.9867L35.796 17.9893Z" fill="#00D8FF"/>
<path d="M64.2039 23.1117C64.61 23.0924 65.014 23.1808 65.375 23.368C68.5038 25.1771 68.4141 38.6046 58.8765 55.125C51.0096 68.7473 40.9646 76.8883 35.796 76.8883C35.3899 76.9076 34.9859 76.8192 34.625 76.6321C31.4962 74.8204 31.5859 61.3929 41.1235 44.875C48.9904 31.2528 59.0354 23.1117 64.2039 23.1117ZM64.2039 17.9867C56.4652 17.9867 45.1005 27.7345 36.6827 42.3125C26.7812 59.471 24.7081 76.8243 32.0625 81.0678C33.2009 81.709 34.4896 82.0354 35.796 82.0133C43.5348 82.0133 54.8995 72.2656 63.3173 57.6875C73.2188 40.529 75.2919 23.1758 67.9375 18.9323C66.7991 18.291 65.5103 17.9646 64.2039 17.9867Z" fill="#00D8FF"/>
</svg>
