<svg width="100" height="100" viewBox="0 0 100 100" fill="none" xmlns="http://www.w3.org/2000/svg">
<rect width="100" height="100" fill="#FFAECC"/>
<path d="M72.1667 31H65.8333C65.8333 22.1334 58.8667 15.1667 50 15.1667C41.1333 15.1667 34.1667 22.1334 34.1667 31H27.8333C24.35 31 21.5 33.85 21.5 37.3334V75.3334C21.5 78.8167 24.35 81.6667 27.8333 81.6667H72.1667C75.65 81.6667 78.5 78.8167 78.5 75.3334V37.3334C78.5 33.85 75.65 31 72.1667 31ZM50 21.5C55.3833 21.5 59.5 25.6167 59.5 31H40.5C40.5 25.6167 44.6167 21.5 50 21.5ZM72.1667 75.3334H27.8333V37.3334H72.1667V75.3334ZM50 50C44.6167 50 40.5 45.8834 40.5 40.5H34.1667C34.1667 49.3667 41.1333 56.3334 50 56.3334C58.8667 56.3334 65.8333 49.3667 65.8333 40.5H59.5C59.5 45.8834 55.3833 50 50 50Z" fill="black"/>
</svg>
