<svg width="100" height="100" viewBox="0 0 100 100" fill="none" xmlns="http://www.w3.org/2000/svg">
<rect width="100" height="100" fill="#DCFF89"/>
<g clip-path="url(#clip0_108_254)">
<path d="M70.9506 30.5676C70.9066 30.2476 70.6268 30.0706 70.3956 30.051C68.6906 29.9227 66.9856 29.7953 65.2806 29.669C65.2806 29.669 61.8884 26.2948 61.5161 25.9213C61.1436 25.548 60.416 25.6616 60.1336 25.7449C60.092 25.7571 59.3925 25.9735 58.2353 26.3322C57.1021 23.0652 55.1023 20.0629 51.5842 20.0629C51.4871 20.0629 51.3871 20.0668 51.2871 20.0725C50.2866 18.7467 49.0471 18.1707 47.9766 18.1707C39.7811 18.1707 35.8657 28.4359 34.6381 33.6524C31.4535 34.6411 29.1912 35.344 28.9022 35.4349C27.1246 35.9936 27.0684 36.0497 26.835 37.728C26.6594 38.9986 22.0083 75.0378 22.0083 75.0378L58.2504 81.8415L77.8876 77.5851C77.8876 77.5851 70.9939 30.8876 70.9506 30.5676ZM56.2322 26.953L53.1655 27.904C53.1666 27.6874 53.1677 27.4744 53.1677 27.2414C53.1677 25.2109 52.8864 23.5761 52.4351 22.2801C54.2479 22.508 55.4552 24.5747 56.2322 26.953ZM50.1864 22.6827C50.6904 23.948 51.0181 25.7639 51.0181 28.2143C51.0181 28.3397 51.017 28.4543 51.0159 28.5703C49.0215 29.1892 46.8544 29.8612 44.6824 30.5354C45.9019 25.8196 48.1879 23.5419 50.1864 22.6827ZM47.7515 20.3732C48.1052 20.3732 48.4615 20.4936 48.8026 20.7287C46.176 21.9671 43.3607 25.086 42.1718 31.3144L37.1655 32.8679C38.5581 28.1172 41.8649 20.3732 47.7515 20.3732Z" fill="#95BF46"/>
<path d="M70.3955 30.0511C68.6906 29.9227 66.9856 29.7953 65.2805 29.669C65.2805 29.669 61.8884 26.2948 61.516 25.9213C61.3767 25.7823 61.1888 25.7111 60.9924 25.6804L58.2521 81.8411L77.8875 77.5851C77.8875 77.5851 70.9938 30.8877 70.9505 30.5677C70.9065 30.2477 70.6268 30.0706 70.3955 30.0511Z" fill="#5E8E3E"/>
<path d="M51.5842 40.9227L49.1628 48.1394C49.1628 48.1394 47.0414 47.0049 44.4409 47.0049C40.6285 47.0049 40.4367 49.4021 40.4367 50.0061C40.4367 53.3021 49.0117 54.565 49.0117 62.2853C49.0117 68.3594 45.1667 72.2707 39.9823 72.2707C33.7611 72.2707 30.5796 68.3912 30.5796 68.3912L32.2454 62.8767C32.2454 62.8767 35.5157 65.6898 38.2752 65.6898C40.0784 65.6898 40.8118 64.2674 40.8118 63.228C40.8118 58.9286 33.7768 58.7369 33.7768 51.6721C33.7768 45.726 38.0363 39.9719 46.6345 39.9719C49.9475 39.9719 51.5842 40.9227 51.5842 40.9227Z" fill="white"/>
</g>
<defs>
<clipPath id="clip0_108_254">
<rect width="56" height="64" fill="white" transform="translate(22 18)"/>
</clipPath>
</defs>
</svg>
