<svg width="139" height="31" viewBox="0 0 139 31" fill="none" xmlns="http://www.w3.org/2000/svg">
<path d="M17.0344 18.794H6.53928V30.4746H0V0.565841H19.0123V6.62842H6.53928V12.8931H17.0344V18.794Z" fill="black"/>
<path d="M30.5548 31C24.4595 31 20.1 26.5541 20.1 20.3299C20.1 14.0248 24.3384 9.61929 30.4337 9.61929C36.7711 9.61929 40.727 13.7823 40.727 20.3703V21.9465L26.0742 22.0274C26.4375 24.6949 27.931 25.9478 30.6759 25.9478C33.0171 25.9478 34.6721 25.0991 35.1161 23.6441H40.8077C40.0811 28.1304 36.0849 31 30.5548 31ZM30.4741 14.6714C28.0117 14.6714 26.6393 15.7627 26.1549 18.1877H34.551C34.551 16.0456 32.9767 14.6714 30.4741 14.6714Z" fill="black"/>
<path d="M50.6245 30.4746H44.4082V0H50.6245V30.4746Z" fill="black"/>
<path d="M61.5044 30.4746H55.288V0H61.5044V30.4746Z" fill="black"/>
<path d="M65.078 20.3299C65.078 13.9439 69.7605 9.65971 76.219 9.65971C82.6372 9.65971 87.3196 13.9439 87.3196 20.3299C87.3196 26.7158 82.6372 30.9596 76.219 30.9596C69.7605 30.9596 65.078 26.7158 65.078 20.3299ZM71.3348 20.2894C71.3348 23.3611 73.3127 25.382 76.219 25.382C79.085 25.382 81.0629 23.3611 81.0629 20.2894C81.0629 17.2581 79.085 15.2373 76.219 15.2373C73.3127 15.2373 71.3348 17.2581 71.3348 20.2894Z" fill="black"/>
<path d="M94.46 30.4746L87.9611 10.266H94.5004L96.3572 16.854C96.8416 18.5919 97.2856 20.5724 97.6085 22.5932C97.9718 20.4511 98.1737 19.6832 99.0617 16.854L101.12 10.266H107.498L109.395 16.854C109.597 17.5411 110.566 21.2999 110.768 22.5932C111.01 21.1382 111.979 17.5815 112.181 16.854L114.118 10.266H120.698L113.634 30.4746H107.861L105.924 24.0482C104.915 20.734 104.39 18.3494 104.269 17.5007C104.107 18.3494 103.744 19.9257 102.452 24.1695L100.515 30.4746H94.46Z" fill="black"/>
<path d="M121.4 24.0887H127.294C127.375 25.5033 128.424 26.352 130.321 26.352C132.259 26.352 133.147 25.6649 133.147 24.6141C133.147 24.0078 132.824 23.3611 131.33 23.0378L127.617 22.2295C123.903 21.4211 122.087 19.8044 122.087 16.2477C122.087 12.0443 125.679 9.61929 130.523 9.61929C135.206 9.61929 138.475 12.3677 138.475 16.4498H132.582C132.582 15.0756 131.734 14.146 130.241 14.146C128.828 14.146 127.94 14.8735 127.94 15.9648C127.94 16.8944 128.707 17.4198 130.12 17.7432L133.874 18.5515C137.184 19.279 139 20.8149 139 24.0482C139 28.3729 135.327 31 130.079 31C124.751 31 121.4 28.1708 121.4 24.0887Z" fill="black"/>
</svg>
