<svg width="181" height="31" viewBox="0 0 181 31" fill="none" xmlns="http://www.w3.org/2000/svg">
<g clip-path="url(#clip0_378_144)">
<path d="M0.5 0.5V30.5H10.5V20.5H20.5V10.5H30.5V0.5H0.5Z" fill="black"/>
</g>
<g clip-path="url(#clip1_378_144)">
<path d="M58.5344 18.7936H48.0393V30.4742H41.5V0.56543H60.5123V6.62801H48.0393V12.8927H58.5344V18.7936Z" fill="black"/>
<path d="M72.0544 30.9999C65.9591 30.9999 61.5996 26.554 61.5996 20.3298C61.5996 14.0247 65.838 9.61914 71.9333 9.61914C78.2707 9.61914 82.2266 13.7822 82.2266 20.3702V21.9464L67.5738 22.0272C67.9371 24.6947 69.4306 25.9477 72.1755 25.9477C74.5167 25.9477 76.1717 25.099 76.6157 23.644H82.3073C81.5807 28.1303 77.5845 30.9999 72.0544 30.9999ZM71.9737 14.6713C69.5113 14.6713 68.1389 15.7626 67.6545 18.1876H76.0506C76.0506 16.0455 74.4763 14.6713 71.9737 14.6713Z" fill="black"/>
<path d="M92.1245 30.4746H85.9082V0H92.1245V30.4746Z" fill="black"/>
<path d="M103.004 30.4746H96.7881V0H103.004V30.4746Z" fill="black"/>
<path d="M106.578 20.3303C106.578 13.9443 111.261 9.66016 117.719 9.66016C124.137 9.66016 128.82 13.9443 128.82 20.3303C128.82 26.7162 124.137 30.96 117.719 30.96C111.261 30.96 106.578 26.7162 106.578 20.3303ZM112.835 20.2898C112.835 23.3615 114.813 25.3824 117.719 25.3824C120.585 25.3824 122.563 23.3615 122.563 20.2898C122.563 17.2585 120.585 15.2377 117.719 15.2377C114.813 15.2377 112.835 17.2585 112.835 20.2898Z" fill="black"/>
<path d="M135.96 30.4742L129.461 10.2656H136L137.857 16.8536C138.341 18.5915 138.785 20.572 139.108 22.5928C139.472 20.4507 139.674 19.6828 140.562 16.8536L142.62 10.2656H148.998L150.895 16.8536C151.097 17.5407 152.066 21.2995 152.268 22.5928C152.51 21.1378 153.479 17.5811 153.681 16.8536L155.618 10.2656H162.198L155.134 30.4742H149.361L147.424 24.0478C146.415 20.7336 145.89 18.349 145.769 17.5003C145.607 18.349 145.244 19.9253 143.952 24.1691L142.015 30.4742H135.96Z" fill="black"/>
<path d="M162.9 24.0885H168.794C168.875 25.5031 169.924 26.3518 171.821 26.3518C173.759 26.3518 174.647 25.6647 174.647 24.6139C174.647 24.0076 174.324 23.361 172.83 23.0377L169.117 22.2294C165.403 21.421 163.587 19.8043 163.587 16.2476C163.587 12.0441 167.179 9.61914 172.023 9.61914C176.706 9.61914 179.975 12.3676 179.975 16.4497H174.082C174.082 15.0755 173.234 14.1459 171.741 14.1459C170.328 14.1459 169.44 14.8734 169.44 15.9647C169.44 16.8943 170.207 17.4197 171.62 17.7431L175.374 18.5514C178.684 19.2789 180.5 20.8148 180.5 24.0481C180.5 28.3728 176.827 30.9999 171.579 30.9999C166.251 30.9999 162.9 28.1706 162.9 24.0885Z" fill="black"/>
</g>
<defs>
<clipPath id="clip0_378_144">
<rect width="30" height="30" fill="white" transform="translate(0.5 0.5)"/>
</clipPath>
<clipPath id="clip1_378_144">
<rect width="139" height="31" fill="white" transform="translate(41.5)"/>
</clipPath>
</defs>
</svg>
